<mxfile host="app.diagrams.net" modified="2023-06-30T20:05:57.756Z" agent="Mozilla/5.0 (Windows NT 10.0; Win64; x64) AppleWebKit/537.36 (KHTML, like Gecko) Chrome/113.0.0.0 Safari/537.36 Edg/113.0.100.0" etag="q4E05UWgCCuzsvFC2PhF" version="21.5.2" type="device">
  <diagram name="Page-1" id="dKko4IjTI4fYF-sSx5uM">
    <mxGraphModel dx="965" dy="540" grid="1" gridSize="10" guides="1" tooltips="1" connect="1" arrows="1" fold="1" page="1" pageScale="1" pageWidth="850" pageHeight="1100" math="1" shadow="0">
      <root>
        <mxCell id="0" />
        <mxCell id="1" parent="0" />
        <mxCell id="RSvUvKUyJQIWyDehmDAG-2" value="" style="shape=image;verticalLabelPosition=bottom;labelBackgroundColor=default;verticalAlign=top;aspect=fixed;imageAspect=0;image=data:image/svg+xml,PHN2ZyB4bWxucz0iaHR0cDovL3d3dy53My5vcmcvMjAwMC9zdmciIGlkPSJzdmc2MjM1IiB2ZXJzaW9uPSIxLjEiIHZpZXdCb3g9IjAgMCAxMi45NzY1NDQgODcuNTMzMDczIiBoZWlnaHQ9Ijg3LjUzMzA3M21tIiB3aWR0aD0iMTIuOTc2NTQ0bW0iPiYjeGE7ICA8ZGVmcyBpZD0iZGVmczYyMzIiLz4mI3hhOyAgPGcgdHJhbnNmb3JtPSJ0cmFuc2xhdGUoLTE4NC4xMDE1NSwtODcuNTQxODQ3KSIgaWQ9ImxheWVyMSI+JiN4YTsgICAgPHBhdGggc3R5bGU9InN0cm9rZS13aWR0aDowLjM1Mjc3OCIgaWQ9InBhdGgxOTYyIiBkPSJtIDE4Ni40MjU2Miw5MC44NjQzNjUgYyAwLC0wLjQxNDc5MyAtMC4zMzYyNCwtMC43NDk2NTMgLTAuNzUxMDMsLTAuNzQ5NjUzIC0wLjQxMzQyLDAgLTAuNzQ5NjYsMC4zMzQ4NiAtMC43NDk2NiwwLjc0OTY1MyAwLDAuNDEzNDEgMC4zMzYyNCwwLjc0OTY1MyAwLjc0OTY2LDAuNzQ5NjUzIDAuNDE0NzksMCAwLjc1MTAzLC0wLjMzNjI0MyAwLjc1MTAzLC0wLjc0OTY1MyB6IG0gMCwwIiBmaWxsLW9wYWNpdHk9IjEiIGZpbGw9IiMwMDAwMDAiIGZpbGwtcnVsZT0ibm9uemVybyIvPiYjeGE7ICAgIDxnIHRyYW5zZm9ybT0ibWF0cml4KDAuMzUyNzc3NzcsMCwwLDAuMzUyNzc3NzcsODUuNTYyODcxLC0zMC42MjQ4NTkpIiBpZD0iZzE5NjYiIGZpbGwtb3BhY2l0eT0iMSIgZmlsbD0iIzAwMDAwMCI+JiN4YTsgICAgICA8ZyB0cmFuc2Zvcm09InRyYW5zbGF0ZSgyNzguOTE1OTksMzM5LjM2NykiIGlkPSJ1c2UxOTY0Ij4mI3hhOyAgICAgICAgPHBhdGggaWQ9InBhdGg2Mzg3IiBkPSJtIDQuOTY4NzUsLTEuNDIxODc1IGMgMCwtMC4xMDkzNzUgLTAuMDkzNzUsLTAuMTA5Mzc1IC0wLjEyNSwtMC4xMDkzNzUgLTAuMDkzNzUsMCAtMC4xMDkzNzUsMC4wNDY4NzUgLTAuMTQwNjI1LDAuMTg3NSAtMC4xNzE4NzUsMC42NDA2MjUgLTAuMzQzNzUsMS4yMzQzNzUgLTAuNzUsMS4yMzQzNzUgLTAuMjgxMjUsMCAtMC4yOTY4NzUsLTAuMjY1NjI1IC0wLjI5Njg3NSwtMC40NTMxMjUgMCwtMC4yMTg3NSAwLjAxNTYyNSwtMC4zMTI1IDAuMTI1LC0wLjc1IEwgNCwtMi4yMDMxMjUgNC4zNTkzNzUsLTMuNTkzNzUgYyAwLjA2MjUsLTAuMjgxMjUgMC4wNjI1LC0wLjI5Njg3NSAwLjA2MjUsLTAuMzQzNzUgMCwtMC4xNzE4NzUgLTAuMTA5Mzc1LC0wLjI2NTYyNSAtMC4yODEyNSwtMC4yNjU2MjUgLTAuMjUsMCAtMC4zOTA2MjUsMC4yMTg3NSAtMC40MjE4NzUsMC40Mzc1IC0wLjE4NzUsLTAuMzc1IC0wLjQ2ODc1LC0wLjY0MDYyNSAtMC45MjE4NzUsLTAuNjQwNjI1IC0xLjE1NjI1LDAgLTIuMzkwNjI1LDEuNDY4NzUgLTIuMzkwNjI1LDIuOTIxODc1IDAsMC45Mzc1IDAuNTQ2ODc1LDEuNTkzNzUgMS4zMTI1LDEuNTkzNzUgMC4yMDMxMjUsMCAwLjcwMzEyNSwtMC4wNDY4NzUgMS4yOTY4NzUsLTAuNzUgMC4wNzgxMjUsMC40MjE4NzUgMC40Mzc1LDAuNzUgMC45MDYyNSwwLjc1IDAuMzU5Mzc1LDAgMC41NzgxMjUsLTAuMjM0Mzc1IDAuNzUsLTAuNTQ2ODc1IDAuMTU2MjUsLTAuMzU5Mzc1IDAuMjk2ODc1LC0wLjk4NDM3NSAwLjI5Njg3NSwtMC45ODQzNzUgeiBNIDMuNTYyNSwtMy4xNDA2MjUgMy4wNzgxMjUsLTEuMTg3NSBDIDMuMDE1NjI1LC0xIDMuMDE1NjI1LC0wLjk4NDM3NSAyLjg3NSwtMC44MTI1IDIuNDM3NSwtMC4yNjU2MjUgMi4wMzEyNSwtMC4xMDkzNzUgMS43NSwtMC4xMDkzNzUgYyAtMC41LDAgLTAuNjQwNjI1LC0wLjU0Njg3NSAtMC42NDA2MjUsLTAuOTM3NSAwLC0wLjUgMC4zMTI1LC0xLjcxODc1IDAuNTQ2ODc1LC0yLjE4NzUgMC4zMTI1LC0wLjU3ODEyNSAwLjc1LC0wLjk1MzEyNSAxLjE1NjI1LC0wLjk1MzEyNSAwLjY0MDYyNSwwIDAuNzgxMjUsMC44MTI1IDAuNzgxMjUsMC44NzUgMCwwLjA2MjUgLTAuMDE1NjI1LDAuMTI1IC0wLjAzMTI1LDAuMTcxODc1IHogbSAwLDAiLz4mI3hhOyAgICAgIDwvZz4mI3hhOyAgICA8L2c+JiN4YTsgICAgPGcgdHJhbnNmb3JtPSJtYXRyaXgoMC4zNTI3Nzc3NywwLDAsMC4zNTI3Nzc3Nyw4NS41NjI4NzEsLTMwLjYyNDg1OSkiIGlkPSJnMTk3MCIgZmlsbC1vcGFjaXR5PSIxIiBmaWxsPSIjMDAwMDAwIj4mI3hhOyAgICAgIDxnIHRyYW5zZm9ybT0idHJhbnNsYXRlKDI4NC4xODIwMSwzNDAuODYwOTkpIiBpZD0idXNlMTk2OCI+JiN4YTsgICAgICAgIDxwYXRoIGlkPSJwYXRoNjM3NSIgZD0iTSAzLjU5Mzc1LC0yLjIxODc1IEMgMy41OTM3NSwtMi45ODQzNzUgMy41LC0zLjU0Njg3NSAzLjE4NzUsLTQuMDMxMjUgMi45Njg3NSwtNC4zNDM3NSAyLjUzMTI1LC00LjYyNSAxLjk4NDM3NSwtNC42MjUgYyAtMS42MjUsMCAtMS42MjUsMS45MDYyNSAtMS42MjUsMi40MDYyNSAwLDAuNSAwLDIuMzU5Mzc1IDEuNjI1LDIuMzU5Mzc1IDEuNjA5Mzc1LDAgMS42MDkzNzUsLTEuODU5Mzc1IDEuNjA5Mzc1LC0yLjM1OTM3NSB6IG0gLTAuNjI1LC0wLjA5Mzc1IGMgMCwwLjUxNTYyNSAwLDEuMDMxMjUgLTAuMDkzNzUsMS40Njg3NSAtMC4xNDA2MjUsMC42NDA2MjUgLTAuNjA5Mzc1LDAuNzgxMjUgLTAuODkwNjI1LDAuNzgxMjUgLTAuMzI4MTI1LDAgLTAuNzUsLTAuMTg3NSAtMC44OTA2MjUsLTAuNzUgQyAxLC0xLjIxODc1IDEsLTEuNzk2ODc1IDEsLTIuMzEyNSAxLC0yLjgyODEyNSAxLC0zLjM1OTM3NSAxLjA5Mzc1LC0zLjczNDM3NSAxLjI1LC00LjI4MTI1IDEuNjg3NSwtNC40Mzc1IDEuOTg0Mzc1LC00LjQzNzUgYyAwLjM3NSwwIDAuNzM0Mzc1LDAuMjM0Mzc1IDAuODU5Mzc1LDAuNjQwNjI1IDAuMTA5Mzc1LDAuMzc1IDAuMTI1LDAuODc1IDAuMTI1LDEuNDg0Mzc1IHogbSAwLDAiLz4mI3hhOyAgICAgIDwvZz4mI3hhOyAgICA8L2c+JiN4YTsgICAgPHBhdGggc3R5bGU9InN0cm9rZS13aWR0aDowLjM1Mjc3OCIgaWQ9InBhdGgxOTcyIiBkPSJtIDE5Ni40MjQ2NiwxMDAuODY0NzkgYyAwLC0wLjQxNDc5IC0wLjMzNDg2LC0wLjc1MTAzIC0wLjc0OTY1LC0wLjc1MTAzIC0wLjQxMzQxLDAgLTAuNzQ5NjUsMC4zMzYyNCAtMC43NDk2NSwwLjc1MTAzIDAsMC40MTM0MSAwLjMzNjI0LDAuNzQ5NjUgMC43NDk2NSwwLjc0OTY1IDAuNDE0NzksMCAwLjc0OTY1LC0wLjMzNjI0IDAuNzQ5NjUsLTAuNzQ5NjUgeiBtIDAsMCIgZmlsbC1vcGFjaXR5PSIxIiBmaWxsPSIjMDAwMDAwIiBmaWxsLXJ1bGU9Im5vbnplcm8iLz4mI3hhOyAgICA8ZyB0cmFuc2Zvcm09Im1hdHJpeCgwLjM1Mjc3Nzc3LDAsMCwwLjM1Mjc3Nzc3LDg1LjU2Mjg3MSwtMzAuNjI0ODU5KSIgaWQ9ImcxOTc2IiBmaWxsLW9wYWNpdHk9IjEiIGZpbGw9IiMwMDAwMDAiPiYjeGE7ICAgICAgPGcgdHJhbnNmb3JtPSJ0cmFuc2xhdGUoMzA3LjI2MTk5LDM2Ny43MTMwMSkiIGlkPSJ1c2UxOTc0Ij4mI3hhOyAgICAgICAgPHBhdGggaWQ9InBhdGg2MzkxIiBkPSJtIDQuOTY4NzUsLTEuNDIxODc1IGMgMCwtMC4xMDkzNzUgLTAuMDkzNzUsLTAuMTA5Mzc1IC0wLjEyNSwtMC4xMDkzNzUgLTAuMDkzNzUsMCAtMC4xMDkzNzUsMC4wNDY4NzUgLTAuMTQwNjI1LDAuMTg3NSAtMC4xNzE4NzUsMC42NDA2MjUgLTAuMzQzNzUsMS4yMzQzNzUgLTAuNzUsMS4yMzQzNzUgLTAuMjgxMjUsMCAtMC4yOTY4NzUsLTAuMjY1NjI1IC0wLjI5Njg3NSwtMC40NTMxMjUgMCwtMC4yMTg3NSAwLjAxNTYyNSwtMC4zMTI1IDAuMTI1LC0wLjc1IEwgNCwtMi4yMDMxMjUgNC4zNTkzNzUsLTMuNTkzNzUgYyAwLjA2MjUsLTAuMjgxMjUgMC4wNjI1LC0wLjI5Njg3NSAwLjA2MjUsLTAuMzQzNzUgMCwtMC4xNzE4NzUgLTAuMTA5Mzc1LC0wLjI2NTYyNSAtMC4yODEyNSwtMC4yNjU2MjUgLTAuMjUsMCAtMC4zOTA2MjUsMC4yMTg3NSAtMC40MjE4NzUsMC40Mzc1IC0wLjE4NzUsLTAuMzc1IC0wLjQ2ODc1LC0wLjY0MDYyNSAtMC45MjE4NzUsLTAuNjQwNjI1IC0xLjE1NjI1LDAgLTIuMzkwNjI1LDEuNDY4NzUgLTIuMzkwNjI1LDIuOTIxODc1IDAsMC45Mzc1IDAuNTQ2ODc1LDEuNTkzNzUgMS4zMTI1LDEuNTkzNzUgMC4yMDMxMjUsMCAwLjcwMzEyNSwtMC4wNDY4NzUgMS4yOTY4NzUsLTAuNzUgMC4wNzgxMjUsMC40MjE4NzUgMC40Mzc1LDAuNzUgMC45MDYyNSwwLjc1IDAuMzU5Mzc1LDAgMC41NzgxMjUsLTAuMjM0Mzc1IDAuNzUsLTAuNTQ2ODc1IDAuMTU2MjUsLTAuMzU5Mzc1IDAuMjk2ODc1LC0wLjk4NDM3NSAwLjI5Njg3NSwtMC45ODQzNzUgeiBNIDMuNTYyNSwtMy4xNDA2MjUgMy4wNzgxMjUsLTEuMTg3NSBDIDMuMDE1NjI1LC0xIDMuMDE1NjI1LC0wLjk4NDM3NSAyLjg3NSwtMC44MTI1IDIuNDM3NSwtMC4yNjU2MjUgMi4wMzEyNSwtMC4xMDkzNzUgMS43NSwtMC4xMDkzNzUgYyAtMC41LDAgLTAuNjQwNjI1LC0wLjU0Njg3NSAtMC42NDA2MjUsLTAuOTM3NSAwLC0wLjUgMC4zMTI1LC0xLjcxODc1IDAuNTQ2ODc1LC0yLjE4NzUgMC4zMTI1LC0wLjU3ODEyNSAwLjc1LC0wLjk1MzEyNSAxLjE1NjI1LC0wLjk1MzEyNSAwLjY0MDYyNSwwIDAuNzgxMjUsMC44MTI1IDAuNzgxMjUsMC44NzUgMCwwLjA2MjUgLTAuMDE1NjI1LDAuMTI1IC0wLjAzMTI1LDAuMTcxODc1IHogbSAwLDAiLz4mI3hhOyAgICAgIDwvZz4mI3hhOyAgICA8L2c+JiN4YTsgICAgPGcgdHJhbnNmb3JtPSJtYXRyaXgoMC4zNTI3Nzc3NywwLDAsMC4zNTI3Nzc3Nyw4NS41NjI4NzEsLTMwLjYyNDg1OSkiIGlkPSJnMTk4MCIgZmlsbC1vcGFjaXR5PSIxIiBmaWxsPSIjMDAwMDAwIj4mI3hhOyAgICAgIDxnIHRyYW5zZm9ybT0idHJhbnNsYXRlKDMxMi41MjgwMiwzNjkuMjA4MDEpIiBpZD0idXNlMTk3OCI+JiN4YTsgICAgICAgIDxwYXRoIGlkPSJwYXRoNjM3MSIgZD0iTSAzLjI5Njg3NSwwIFYgLTAuMjUgSCAzLjAzMTI1IGMgLTAuNzAzMTI1LDAgLTAuNzAzMTI1LC0wLjA5Mzc1IC0wLjcwMzEyNSwtMC4zMjgxMjUgViAtNC40Mzc1IGMgMCwtMC4xODc1IDAsLTAuMTg3NSAtMC4yMDMxMjUsLTAuMTg3NSAtMC40NTMxMjUsMC40Mzc1IC0xLjA3ODEyNSwwLjQzNzUgLTEuMzU5Mzc1LDAuNDM3NSB2IDAuMjUgYyAwLjE1NjI1LDAgMC42MjUsMCAxLC0wLjE4NzUgdiAzLjU0Njg3NSBjIDAsMC4yMzQzNzUgMCwwLjMyODEyNSAtMC42ODc1LDAuMzI4MTI1IEggMC44MTI1IFYgMCBsIDEuMjM0Mzc1LC0wLjAzMTI1IHogbSAwLDAiLz4mI3hhOyAgICAgIDwvZz4mI3hhOyAgICA8L2c+JiN4YTsgICAgPHBhdGggc3R5bGU9InN0cm9rZS13aWR0aDowLjM1Mjc3OCIgaWQ9InBhdGgxOTgyIiBkPSJtIDE4Ni40MjU2MiwxMTAuODYzODMgYyAwLC0wLjQxMzQxIC0wLjMzNjI0LC0wLjc0OTY1IC0wLjc1MTAzLC0wLjc0OTY1IC0wLjQxMzQyLDAgLTAuNzQ5NjYsMC4zMzYyNCAtMC43NDk2NiwwLjc0OTY1IDAsMC40MTQ3OSAwLjMzNjI0LDAuNzUxMDMgMC43NDk2NiwwLjc1MTAzIDAuNDE0NzksMCAwLjc1MTAzLC0wLjMzNjI0IDAuNzUxMDMsLTAuNzUxMDMgeiBtIDAsMCIgZmlsbC1vcGFjaXR5PSIxIiBmaWxsPSIjMDAwMDAwIiBmaWxsLXJ1bGU9Im5vbnplcm8iLz4mI3hhOyAgICA8ZyB0cmFuc2Zvcm09Im1hdHJpeCgwLjM1Mjc3Nzc3LDAsMCwwLjM1Mjc3Nzc3LDg1LjU2Mjg3MSwtMzAuNjI0ODU5KSIgaWQ9ImcxOTg2IiBmaWxsLW9wYWNpdHk9IjEiIGZpbGw9IiMwMDAwMDAiPiYjeGE7ICAgICAgPGcgdHJhbnNmb3JtPSJ0cmFuc2xhdGUoMjc4LjkxNTk5LDM5Ni4wNikiIGlkPSJ1c2UxOTg0Ij4mI3hhOyAgICAgICAgPHBhdGggaWQ9InBhdGg2Mzk1IiBkPSJtIDQuOTY4NzUsLTEuNDIxODc1IGMgMCwtMC4xMDkzNzUgLTAuMDkzNzUsLTAuMTA5Mzc1IC0wLjEyNSwtMC4xMDkzNzUgLTAuMDkzNzUsMCAtMC4xMDkzNzUsMC4wNDY4NzUgLTAuMTQwNjI1LDAuMTg3NSAtMC4xNzE4NzUsMC42NDA2MjUgLTAuMzQzNzUsMS4yMzQzNzUgLTAuNzUsMS4yMzQzNzUgLTAuMjgxMjUsMCAtMC4yOTY4NzUsLTAuMjY1NjI1IC0wLjI5Njg3NSwtMC40NTMxMjUgMCwtMC4yMTg3NSAwLjAxNTYyNSwtMC4zMTI1IDAuMTI1LC0wLjc1IEwgNCwtMi4yMDMxMjUgNC4zNTkzNzUsLTMuNTkzNzUgYyAwLjA2MjUsLTAuMjgxMjUgMC4wNjI1LC0wLjI5Njg3NSAwLjA2MjUsLTAuMzQzNzUgMCwtMC4xNzE4NzUgLTAuMTA5Mzc1LC0wLjI2NTYyNSAtMC4yODEyNSwtMC4yNjU2MjUgLTAuMjUsMCAtMC4zOTA2MjUsMC4yMTg3NSAtMC40MjE4NzUsMC40Mzc1IC0wLjE4NzUsLTAuMzc1IC0wLjQ2ODc1LC0wLjY0MDYyNSAtMC45MjE4NzUsLTAuNjQwNjI1IC0xLjE1NjI1LDAgLTIuMzkwNjI1LDEuNDY4NzUgLTIuMzkwNjI1LDIuOTIxODc1IDAsMC45Mzc1IDAuNTQ2ODc1LDEuNTkzNzUgMS4zMTI1LDEuNTkzNzUgMC4yMDMxMjUsMCAwLjcwMzEyNSwtMC4wNDY4NzUgMS4yOTY4NzUsLTAuNzUgMC4wNzgxMjUsMC40MjE4NzUgMC40Mzc1LDAuNzUgMC45MDYyNSwwLjc1IDAuMzU5Mzc1LDAgMC41NzgxMjUsLTAuMjM0Mzc1IDAuNzUsLTAuNTQ2ODc1IDAuMTU2MjUsLTAuMzU5Mzc1IDAuMjk2ODc1LC0wLjk4NDM3NSAwLjI5Njg3NSwtMC45ODQzNzUgeiBNIDMuNTYyNSwtMy4xNDA2MjUgMy4wNzgxMjUsLTEuMTg3NSBDIDMuMDE1NjI1LC0xIDMuMDE1NjI1LC0wLjk4NDM3NSAyLjg3NSwtMC44MTI1IDIuNDM3NSwtMC4yNjU2MjUgMi4wMzEyNSwtMC4xMDkzNzUgMS43NSwtMC4xMDkzNzUgYyAtMC41LDAgLTAuNjQwNjI1LC0wLjU0Njg3NSAtMC42NDA2MjUsLTAuOTM3NSAwLC0wLjUgMC4zMTI1LC0xLjcxODc1IDAuNTQ2ODc1LC0yLjE4NzUgMC4zMTI1LC0wLjU3ODEyNSAwLjc1LC0wLjk1MzEyNSAxLjE1NjI1LC0wLjk1MzEyNSAwLjY0MDYyNSwwIDAuNzgxMjUsMC44MTI1IDAuNzgxMjUsMC44NzUgMCwwLjA2MjUgLTAuMDE1NjI1LDAuMTI1IC0wLjAzMTI1LDAuMTcxODc1IHogbSAwLDAiLz4mI3hhOyAgICAgIDwvZz4mI3hhOyAgICA8L2c+JiN4YTsgICAgPGcgdHJhbnNmb3JtPSJtYXRyaXgoMC4zNTI3Nzc3NywwLDAsMC4zNTI3Nzc3Nyw4NS41NjI4NzEsLTMwLjYyNDg1OSkiIGlkPSJnMTk5MCIgZmlsbC1vcGFjaXR5PSIxIiBmaWxsPSIjMDAwMDAwIj4mI3hhOyAgICAgIDxnIHRyYW5zZm9ybT0idHJhbnNsYXRlKDI4NC4xODIwMSwzOTcuNTUzOTkpIiBpZD0idXNlMTk4OCI+JiN4YTsgICAgICAgIDxwYXRoIGlkPSJwYXRoNjM2NyIgZD0iTSAzLjUxNTYyNSwtMS4yNjU2MjUgSCAzLjI4MTI1IGMgLTAuMDE1NjI1LDAuMTU2MjUgLTAuMDkzNzUsMC41NjI1IC0wLjE4NzUsMC42MjUgQyAzLjA0Njg3NSwtMC41OTM3NSAyLjUxNTYyNSwtMC41OTM3NSAyLjQwNjI1LC0wLjU5Mzc1IEggMS4xMjUgYyAwLjczNDM3NSwtMC42NDA2MjUgMC45ODQzNzUsLTAuODQzNzUgMS4zOTA2MjUsLTEuMTcxODc1IDAuNTE1NjI1LC0wLjQwNjI1IDEsLTAuODQzNzUgMSwtMS41IDAsLTAuODQzNzUgLTAuNzM0Mzc1LC0xLjM1OTM3NSAtMS42MjUsLTEuMzU5Mzc1IC0wLjg1OTM3NSwwIC0xLjQ1MzEyNSwwLjYwOTM3NSAtMS40NTMxMjUsMS4yNSAwLDAuMzQzNzUgMC4yOTY4NzUsMC4zOTA2MjUgMC4zNzUsMC4zOTA2MjUgMC4xNTYyNSwwIDAuMzU5Mzc1LC0wLjEyNSAwLjM1OTM3NSwtMC4zNzUgMCwtMC4xMjUgLTAuMDQ2ODc1LC0wLjM3NSAtMC40MDYyNSwtMC4zNzUgQyAwLjk4NDM3NSwtNC4yMTg3NSAxLjQ1MzEyNSwtNC4zNzUgMS43ODEyNSwtNC4zNzUgYyAwLjcwMzEyNSwwIDEuMDYyNSwwLjU0Njg3NSAxLjA2MjUsMS4xMDkzNzUgMCwwLjYwOTM3NSAtMC40Mzc1LDEuMDc4MTI1IC0wLjY1NjI1LDEuMzI4MTI1IEwgMC41MTU2MjUsLTAuMjY1NjI1IEMgMC40Mzc1LC0wLjIwMzEyNSAwLjQzNzUsLTAuMTg3NSAwLjQzNzUsMCBoIDIuODc1IHogbSAwLDAiLz4mI3hhOyAgICAgIDwvZz4mI3hhOyAgICA8L2c+JiN4YTsgICAgPHBhdGggc3R5bGU9InN0cm9rZS13aWR0aDowLjM1Mjc3OCIgaWQ9InBhdGgxOTkyIiBkPSJtIDE5Ni40MjQ2NiwxMjAuODY0MjUgYyAwLC0wLjQxMzQxIC0wLjMzNDg2LC0wLjc0OTY1IC0wLjc0OTY1LC0wLjc0OTY1IC0wLjQxMzQxLDAgLTAuNzQ5NjUsMC4zMzYyNCAtMC43NDk2NSwwLjc0OTY1IDAsMC40MTQ3OSAwLjMzNjI0LDAuNzQ5NjYgMC43NDk2NSwwLjc0OTY2IDAuNDE0NzksMCAwLjc0OTY1LC0wLjMzNDg3IDAuNzQ5NjUsLTAuNzQ5NjYgeiBtIDAsMCIgZmlsbC1vcGFjaXR5PSIxIiBmaWxsPSIjMDAwMDAwIiBmaWxsLXJ1bGU9Im5vbnplcm8iLz4mI3hhOyAgICA8ZyB0cmFuc2Zvcm09Im1hdHJpeCgwLjM1Mjc3Nzc3LDAsMCwwLjM1Mjc3Nzc3LDg1LjU2Mjg3MSwtMzAuNjI0ODU5KSIgaWQ9ImcxOTk2IiBmaWxsLW9wYWNpdHk9IjEiIGZpbGw9IiMwMDAwMDAiPiYjeGE7ICAgICAgPGcgdHJhbnNmb3JtPSJ0cmFuc2xhdGUoMzA3LjI2MTk5LDQyNC40MDYwMSkiIGlkPSJ1c2UxOTk0Ij4mI3hhOyAgICAgICAgPHBhdGggaWQ9InBhdGg2Mzk5IiBkPSJtIDQuOTY4NzUsLTEuNDIxODc1IGMgMCwtMC4xMDkzNzUgLTAuMDkzNzUsLTAuMTA5Mzc1IC0wLjEyNSwtMC4xMDkzNzUgLTAuMDkzNzUsMCAtMC4xMDkzNzUsMC4wNDY4NzUgLTAuMTQwNjI1LDAuMTg3NSAtMC4xNzE4NzUsMC42NDA2MjUgLTAuMzQzNzUsMS4yMzQzNzUgLTAuNzUsMS4yMzQzNzUgLTAuMjgxMjUsMCAtMC4yOTY4NzUsLTAuMjY1NjI1IC0wLjI5Njg3NSwtMC40NTMxMjUgMCwtMC4yMTg3NSAwLjAxNTYyNSwtMC4zMTI1IDAuMTI1LC0wLjc1IEwgNCwtMi4yMDMxMjUgNC4zNTkzNzUsLTMuNTkzNzUgYyAwLjA2MjUsLTAuMjgxMjUgMC4wNjI1LC0wLjI5Njg3NSAwLjA2MjUsLTAuMzQzNzUgMCwtMC4xNzE4NzUgLTAuMTA5Mzc1LC0wLjI2NTYyNSAtMC4yODEyNSwtMC4yNjU2MjUgLTAuMjUsMCAtMC4zOTA2MjUsMC4yMTg3NSAtMC40MjE4NzUsMC40Mzc1IC0wLjE4NzUsLTAuMzc1IC0wLjQ2ODc1LC0wLjY0MDYyNSAtMC45MjE4NzUsLTAuNjQwNjI1IC0xLjE1NjI1LDAgLTIuMzkwNjI1LDEuNDY4NzUgLTIuMzkwNjI1LDIuOTIxODc1IDAsMC45Mzc1IDAuNTQ2ODc1LDEuNTkzNzUgMS4zMTI1LDEuNTkzNzUgMC4yMDMxMjUsMCAwLjcwMzEyNSwtMC4wNDY4NzUgMS4yOTY4NzUsLTAuNzUgMC4wNzgxMjUsMC40MjE4NzUgMC40Mzc1LDAuNzUgMC45MDYyNSwwLjc1IDAuMzU5Mzc1LDAgMC41NzgxMjUsLTAuMjM0Mzc1IDAuNzUsLTAuNTQ2ODc1IDAuMTU2MjUsLTAuMzU5Mzc1IDAuMjk2ODc1LC0wLjk4NDM3NSAwLjI5Njg3NSwtMC45ODQzNzUgeiBNIDMuNTYyNSwtMy4xNDA2MjUgMy4wNzgxMjUsLTEuMTg3NSBDIDMuMDE1NjI1LC0xIDMuMDE1NjI1LC0wLjk4NDM3NSAyLjg3NSwtMC44MTI1IDIuNDM3NSwtMC4yNjU2MjUgMi4wMzEyNSwtMC4xMDkzNzUgMS43NSwtMC4xMDkzNzUgYyAtMC41LDAgLTAuNjQwNjI1LC0wLjU0Njg3NSAtMC42NDA2MjUsLTAuOTM3NSAwLC0wLjUgMC4zMTI1LC0xLjcxODc1IDAuNTQ2ODc1LC0yLjE4NzUgMC4zMTI1LC0wLjU3ODEyNSAwLjc1LC0wLjk1MzEyNSAxLjE1NjI1LC0wLjk1MzEyNSAwLjY0MDYyNSwwIDAuNzgxMjUsMC44MTI1IDAuNzgxMjUsMC44NzUgMCwwLjA2MjUgLTAuMDE1NjI1LDAuMTI1IC0wLjAzMTI1LDAuMTcxODc1IHogbSAwLDAiLz4mI3hhOyAgICAgIDwvZz4mI3hhOyAgICA8L2c+JiN4YTsgICAgPGcgdHJhbnNmb3JtPSJtYXRyaXgoMC4zNTI3Nzc3NywwLDAsMC4zNTI3Nzc3Nyw4NS41NjI4NzEsLTMwLjYyNDg1OSkiIGlkPSJnMjAwMCIgZmlsbC1vcGFjaXR5PSIxIiBmaWxsPSIjMDAwMDAwIj4mI3hhOyAgICAgIDxnIHRyYW5zZm9ybT0idHJhbnNsYXRlKDMxMi41MjgwMiw0MjUuOTAxKSIgaWQ9InVzZTE5OTgiPiYjeGE7ICAgICAgICA8cGF0aCBpZD0icGF0aDYzNTkiIGQ9Im0gMy41NzgxMjUsLTEuMjAzMTI1IGMgMCwtMC41NDY4NzUgLTAuNDM3NSwtMS4wOTM3NSAtMS4yMDMxMjUsLTEuMjUgMC43MTg3NSwtMC4yNjU2MjUgMC45ODQzNzUsLTAuNzgxMjUgMC45ODQzNzUsLTEuMjE4NzUgMCwtMC41NDY4NzUgLTAuNjI1LC0wLjk1MzEyNSAtMS40MDYyNSwtMC45NTMxMjUgLTAuNzY1NjI1LDAgLTEuMzU5Mzc1LDAuMzc1IC0xLjM1OTM3NSwwLjkzNzUgMCwwLjIzNDM3NSAwLjE1NjI1LDAuMzU5Mzc1IDAuMzU5Mzc1LDAuMzU5Mzc1IDAuMjE4NzUsMCAwLjM1OTM3NSwtMC4xNTYyNSAwLjM1OTM3NSwtMC4zNDM3NSAwLC0wLjIwMzEyNSAtMC4xNDA2MjUsLTAuMzU5Mzc1IC0wLjM1OTM3NSwtMC4zNzUgMC4yNSwtMC4yOTY4NzUgMC43MTg3NSwtMC4zNzUgMC45ODQzNzUsLTAuMzc1IDAuMzEyNSwwIDAuNzUsMC4xNTYyNSAwLjc1LDAuNzUgMCwwLjI5Njg3NSAtMC4wOTM3NSwwLjYyNSAtMC4yODEyNSwwLjgyODEyNSAtMC4yMTg3NSwwLjI2NTYyNSAtMC40MjE4NzUsMC4yODEyNSAtMC43NjU2MjUsMC4zMTI1IC0wLjE3MTg3NSwwLjAxNTYyNSAtMC4xODc1LDAuMDE1NjI1IC0wLjIxODc1LDAuMDE1NjI1IDAsMCAtMC4wNzgxMjUsMC4wMTU2MjUgLTAuMDc4MTI1LDAuMDkzNzUgMCwwLjA5Mzc1IDAuMDYyNSwwLjA5Mzc1IDAuMTg3NSwwLjA5Mzc1IGggMC4zNzUgYyAwLjU0Njg3NSwwIDAuOTM3NSwwLjM3NSAwLjkzNzUsMS4xMjUgMCwwLjg1OTM3NSAtMC41MTU2MjUsMS4xMjUgLTAuOTA2MjUsMS4xMjUgLTAuMjgxMjUsMCAtMC45MDYyNSwtMC4wNzgxMjUgLTEuMTg3NSwtMC41IDAuMzI4MTI1LDAgMC40MDYyNSwtMC4yMzQzNzUgMC40MDYyNSwtMC4zOTA2MjUgMCwtMC4yMTg3NSAtMC4xNzE4NzUsLTAuMzc1IC0wLjM5MDYyNSwtMC4zNzUgLTAuMTg3NSwwIC0wLjM5MDYyNSwwLjEyNSAtMC4zOTA2MjUsMC40MDYyNSAwLDAuNjU2MjUgMC43MTg3NSwxLjA3ODEyNSAxLjU2MjUsMS4wNzgxMjUgMC45Njg3NSwwIDEuNjQwNjI1LC0wLjY1NjI1IDEuNjQwNjI1LC0xLjM0Mzc1IHogbSAwLDAiLz4mI3hhOyAgICAgIDwvZz4mI3hhOyAgICA8L2c+JiN4YTsgICAgPHBhdGggc3R5bGU9InN0cm9rZS13aWR0aDowLjM1Mjc3OCIgaWQ9InBhdGgyMDAyIiBkPSJtIDE5Ni40MjQ2NiwxNjAuODY0NTcgYyAwLC0wLjQxMzQxIC0wLjMzNDg2LC0wLjc0OTY1IC0wLjc0OTY1LC0wLjc0OTY1IC0wLjQxMzQxLDAgLTAuNzQ5NjUsMC4zMzYyNCAtMC43NDk2NSwwLjc0OTY1IDAsMC40MTQ3OSAwLjMzNjI0LDAuNzUxMDMgMC43NDk2NSwwLjc1MTAzIDAuNDE0NzksMCAwLjc0OTY1LC0wLjMzNjI0IDAuNzQ5NjUsLTAuNzUxMDMgeiBtIDAsMCIgZmlsbC1vcGFjaXR5PSIxIiBmaWxsPSIjMDAwMDAwIiBmaWxsLXJ1bGU9Im5vbnplcm8iLz4mI3hhOyAgICA8ZyB0cmFuc2Zvcm09Im1hdHJpeCgwLjM1Mjc3Nzc3LDAsMCwwLjM1Mjc3Nzc3LDg1LjU2Mjg3MSwtMzAuNjI0ODU5KSIgaWQ9ImcyMDA2IiBmaWxsLW9wYWNpdHk9IjEiIGZpbGw9IiMwMDAwMDAiPiYjeGE7ICAgICAgPGcgdHJhbnNmb3JtPSJ0cmFuc2xhdGUoMzA3Ljc1Njk5LDU1My4yNDUpIiBpZD0idXNlMjAwNCI+JiN4YTsgICAgICAgIDxwYXRoIGlkPSJwYXRoNjM3OSIgZD0ibSA0LjE0MDYyNSwtMi44MTI1IGMgMCwtMC45MDYyNSAtMC41MzEyNSwtMS41OTM3NSAtMS4zMjgxMjUsLTEuNTkzNzUgLTAuNDUzMTI1LDAgLTAuODc1LDAuMjk2ODc1IC0xLjE3MTg3NSwwLjU5Mzc1IGwgMC43MzQzNzUsLTMgYyAwLDAgMCwtMC4xMDkzNzUgLTAuMTI1LC0wLjEwOTM3NSAtMC4yMTg3NSwwIC0wLjk1MzEyNSwwLjA3ODEyNSAtMS4yMTg3NSwwLjEwOTM3NSAtMC4wNzgxMjUsMCAtMC4xODc1LDAuMDE1NjI1IC0wLjE4NzUsMC4xODc1IDAsMC4xMjUgMC4wOTM3NSwwLjEyNSAwLjI1LDAuMTI1IDAuNDY4NzUsMCAwLjQ4NDM3NSwwLjA2MjUgMC40ODQzNzUsMC4xNzE4NzUgMCwwLjA2MjUgLTAuMDc4MTI1LDAuNDA2MjUgLTAuMTI1LDAuNjA5Mzc1IGwgLTAuODI4MTI1LDMuMjUgYyAtMC4xMDkzNzUsMC41IC0wLjE1NjI1LDAuNjcxODc1IC0wLjE1NjI1LDEuMDE1NjI1IDAsMC45Mzc1IDAuNTMxMjUsMS41NjI1IDEuMjY1NjI1LDEuNTYyNSAxLjE3MTg3NSwwIDIuNDA2MjUsLTEuNDg0Mzc1IDIuNDA2MjUsLTIuOTIxODc1IHogTSAyLjkwNjI1LC0xLjE0MDYyNSBjIC0wLjMyODEyNSwwLjY3MTg3NSAtMC43ODEyNSwxLjAzMTI1IC0xLjE3MTg3NSwxLjAzMTI1IC0wLjM0Mzc1LDAgLTAuNjcxODc1LC0wLjI2NTYyNSAtMC42NzE4NzUsLTEgMCwtMC4yMDMxMjUgMCwtMC4zOTA2MjUgMC4xNTYyNSwtMS4wMTU2MjUgTCAxLjQ1MzEyNSwtMy4wNDY4NzUgQyAxLjUsLTMuMjY1NjI1IDEuNSwtMy4yODEyNSAxLjU5Mzc1LC0zLjM5MDYyNSAyLjA3ODEyNSwtNC4wMzEyNSAyLjUzMTI1LC00LjE4NzUgMi43OTY4NzUsLTQuMTg3NSBjIDAuMzU5Mzc1LDAgMC42MjUsMC4yOTY4NzUgMC42MjUsMC45Mzc1IDAsMC41OTM3NSAtMC4zMjgxMjUsMS43MzQzNzUgLTAuNTE1NjI1LDIuMTA5Mzc1IHogbSAwLDAiLz4mI3hhOyAgICAgIDwvZz4mI3hhOyAgICA8L2c+JiN4YTsgICAgPGcgdHJhbnNmb3JtPSJtYXRyaXgoMC4zNTI3Nzc3NywwLDAsMC4zNTI3Nzc3Nyw4NS41NjI4NzEsLTMwLjYyNDg1OSkiIGlkPSJnMjAxMCIgZmlsbC1vcGFjaXR5PSIxIiBmaWxsPSIjMDAwMDAwIj4mI3hhOyAgICAgIDxnIHRyYW5zZm9ybT0idHJhbnNsYXRlKDMxMi4wMzI5OSw1NTQuNzM5OTkpIiBpZD0idXNlMjAwOCI+JiN4YTsgICAgICAgIDxwYXRoIGlkPSJwYXRoNjM2MyIgZD0ibSAzLjU3ODEyNSwtMS4yMDMxMjUgYyAwLC0wLjU0Njg3NSAtMC40Mzc1LC0xLjA5Mzc1IC0xLjIwMzEyNSwtMS4yNSAwLjcxODc1LC0wLjI2NTYyNSAwLjk4NDM3NSwtMC43ODEyNSAwLjk4NDM3NSwtMS4yMTg3NSAwLC0wLjU0Njg3NSAtMC42MjUsLTAuOTUzMTI1IC0xLjQwNjI1LC0wLjk1MzEyNSAtMC43NjU2MjUsMCAtMS4zNTkzNzUsMC4zNzUgLTEuMzU5Mzc1LDAuOTM3NSAwLDAuMjM0Mzc1IDAuMTU2MjUsMC4zNTkzNzUgMC4zNTkzNzUsMC4zNTkzNzUgMC4yMTg3NSwwIDAuMzU5Mzc1LC0wLjE1NjI1IDAuMzU5Mzc1LC0wLjM0Mzc1IDAsLTAuMjAzMTI1IC0wLjE0MDYyNSwtMC4zNTkzNzUgLTAuMzU5Mzc1LC0wLjM3NSAwLjI1LC0wLjI5Njg3NSAwLjcxODc1LC0wLjM3NSAwLjk4NDM3NSwtMC4zNzUgMC4zMTI1LDAgMC43NSwwLjE1NjI1IDAuNzUsMC43NSAwLDAuMjk2ODc1IC0wLjA5Mzc1LDAuNjI1IC0wLjI4MTI1LDAuODI4MTI1IC0wLjIxODc1LDAuMjY1NjI1IC0wLjQyMTg3NSwwLjI4MTI1IC0wLjc2NTYyNSwwLjMxMjUgLTAuMTcxODc1LDAuMDE1NjI1IC0wLjE4NzUsMC4wMTU2MjUgLTAuMjE4NzUsMC4wMTU2MjUgMCwwIC0wLjA3ODEyNSwwLjAxNTYyNSAtMC4wNzgxMjUsMC4wOTM3NSAwLDAuMDkzNzUgMC4wNjI1LDAuMDkzNzUgMC4xODc1LDAuMDkzNzUgaCAwLjM3NSBjIDAuNTQ2ODc1LDAgMC45Mzc1LDAuMzc1IDAuOTM3NSwxLjEyNSAwLDAuODU5Mzc1IC0wLjUxNTYyNSwxLjEyNSAtMC45MDYyNSwxLjEyNSAtMC4yODEyNSwwIC0wLjkwNjI1LC0wLjA3ODEyNSAtMS4xODc1LC0wLjUgMC4zMjgxMjUsMCAwLjQwNjI1LC0wLjIzNDM3NSAwLjQwNjI1LC0wLjM5MDYyNSAwLC0wLjIxODc1IC0wLjE3MTg3NSwtMC4zNzUgLTAuMzkwNjI1LC0wLjM3NSAtMC4xODc1LDAgLTAuMzkwNjI1LDAuMTI1IC0wLjM5MDYyNSwwLjQwNjI1IDAsMC42NTYyNSAwLjcxODc1LDEuMDc4MTI1IDEuNTYyNSwxLjA3ODEyNSAwLjk2ODc1LDAgMS42NDA2MjUsLTAuNjU2MjUgMS42NDA2MjUsLTEuMzQzNzUgeiBtIDAsMCIvPiYjeGE7ICAgICAgPC9nPiYjeGE7ICAgIDwvZz4mI3hhOyAgICA8cGF0aCBzdHlsZT0ic3Ryb2tlLXdpZHRoOjAuMzUyNzc4IiBpZD0icGF0aDIwMTIiIGQ9Im0gMTg2LjQyNTYyLDE3MC44NjQ5OSBjIDAsLTAuNDEzNDEgLTAuMzM2MjQsLTAuNzQ5NjUgLTAuNzUxMDMsLTAuNzQ5NjUgLTAuNDEzNDIsMCAtMC43NDk2NiwwLjMzNjI0IC0wLjc0OTY2LDAuNzQ5NjUgMCwwLjQxNDc5IDAuMzM2MjQsMC43NDk2NSAwLjc0OTY2LDAuNzQ5NjUgMC40MTQ3OSwwIDAuNzUxMDMsLTAuMzM0ODYgMC43NTEwMywtMC43NDk2NSB6IG0gMCwwIiBmaWxsLW9wYWNpdHk9IjEiIGZpbGw9IiMwMDAwMDAiIGZpbGwtcnVsZT0ibm9uemVybyIvPiYjeGE7ICAgIDxnIHRyYW5zZm9ybT0ibWF0cml4KDAuMzUyNzc3NzcsMCwwLDAuMzUyNzc3NzcsODUuNTYyODcxLC0zMC42MjQ4NTkpIiBpZD0iZzIwMTYiIGZpbGwtb3BhY2l0eT0iMSIgZmlsbD0iIzAwMDAwMCI+JiN4YTsgICAgICA8ZyB0cmFuc2Zvcm09InRyYW5zbGF0ZSgyNzkuNDExMDEsNTgxLjU5MTk4KSIgaWQ9InVzZTIwMTQiPiYjeGE7ICAgICAgICA8cGF0aCBpZD0icGF0aDYzODMiIGQ9Im0gNC4xNDA2MjUsLTIuODEyNSBjIDAsLTAuOTA2MjUgLTAuNTMxMjUsLTEuNTkzNzUgLTEuMzI4MTI1LC0xLjU5Mzc1IC0wLjQ1MzEyNSwwIC0wLjg3NSwwLjI5Njg3NSAtMS4xNzE4NzUsMC41OTM3NSBsIDAuNzM0Mzc1LC0zIGMgMCwwIDAsLTAuMTA5Mzc1IC0wLjEyNSwtMC4xMDkzNzUgLTAuMjE4NzUsMCAtMC45NTMxMjUsMC4wNzgxMjUgLTEuMjE4NzUsMC4xMDkzNzUgLTAuMDc4MTI1LDAgLTAuMTg3NSwwLjAxNTYyNSAtMC4xODc1LDAuMTg3NSAwLDAuMTI1IDAuMDkzNzUsMC4xMjUgMC4yNSwwLjEyNSAwLjQ2ODc1LDAgMC40ODQzNzUsMC4wNjI1IDAuNDg0Mzc1LDAuMTcxODc1IDAsMC4wNjI1IC0wLjA3ODEyNSwwLjQwNjI1IC0wLjEyNSwwLjYwOTM3NSBsIC0wLjgyODEyNSwzLjI1IGMgLTAuMTA5Mzc1LDAuNSAtMC4xNTYyNSwwLjY3MTg3NSAtMC4xNTYyNSwxLjAxNTYyNSAwLDAuOTM3NSAwLjUzMTI1LDEuNTYyNSAxLjI2NTYyNSwxLjU2MjUgMS4xNzE4NzUsMCAyLjQwNjI1LC0xLjQ4NDM3NSAyLjQwNjI1LC0yLjkyMTg3NSB6IE0gMi45MDYyNSwtMS4xNDA2MjUgYyAtMC4zMjgxMjUsMC42NzE4NzUgLTAuNzgxMjUsMS4wMzEyNSAtMS4xNzE4NzUsMS4wMzEyNSAtMC4zNDM3NSwwIC0wLjY3MTg3NSwtMC4yNjU2MjUgLTAuNjcxODc1LC0xIDAsLTAuMjAzMTI1IDAsLTAuMzkwNjI1IDAuMTU2MjUsLTEuMDE1NjI1IEwgMS40NTMxMjUsLTMuMDQ2ODc1IEMgMS41LC0zLjI2NTYyNSAxLjUsLTMuMjgxMjUgMS41OTM3NSwtMy4zOTA2MjUgMi4wNzgxMjUsLTQuMDMxMjUgMi41MzEyNSwtNC4xODc1IDIuNzk2ODc1LC00LjE4NzUgYyAwLjM1OTM3NSwwIDAuNjI1LDAuMjk2ODc1IDAuNjI1LDAuOTM3NSAwLDAuNTkzNzUgLTAuMzI4MTI1LDEuNzM0Mzc1IC0wLjUxNTYyNSwyLjEwOTM3NSB6IG0gMCwwIi8+JiN4YTsgICAgICA8L2c+JiN4YTsgICAgPC9nPiYjeGE7ICAgIDxnIHRyYW5zZm9ybT0ibWF0cml4KDAuMzUyNzc3NzcsMCwwLDAuMzUyNzc3NzcsODUuNTYyODcxLC0zMC42MjQ4NTkpIiBpZD0iZzIwMjAiIGZpbGwtb3BhY2l0eT0iMSIgZmlsbD0iIzAwMDAwMCI+JiN4YTsgICAgICA8ZyB0cmFuc2Zvcm09InRyYW5zbGF0ZSgyODMuNjg3MDEsNTgzLjA4NikiIGlkPSJ1c2UyMDE4Ij4mI3hhOyAgICAgICAgPHBhdGggaWQ9InBhdGg2MzU1IiBkPSJtIDMuNjg3NSwtMS4xNDA2MjUgdiAtMC4yNSBIIDIuOTA2MjUgViAtNC41IGMgMCwtMC4xNDA2MjUgMCwtMC4yMDMxMjUgLTAuMTQwNjI1LC0wLjIwMzEyNSAtMC4wOTM3NSwwIC0wLjEyNSwwIC0wLjE4NzUsMC4xMDkzNzUgbCAtMi4zMTI1LDMuMjAzMTI1IHYgMC4yNSBoIDIuMDYyNSB2IDAuNTYyNSBjIDAsMC4yNSAwLDAuMzI4MTI1IC0wLjU3ODEyNSwwLjMyODEyNSBIIDEuNTYyNSBWIDAgTCAyLjYwOTM3NSwtMC4wMzEyNSAzLjY3MTg3NSwwIHYgLTAuMjUgaCAtMC4xODc1IEMgMi45MDYyNSwtMC4yNSAyLjkwNjI1LC0wLjMyODEyNSAyLjkwNjI1LC0wLjU3ODEyNSB2IC0wLjU2MjUgeiBtIC0xLjMxMjUsLTAuMjUgSCAwLjUzMTI1IEwgMi4zNzUsLTMuOTM3NSBaIG0gMCwwIi8+JiN4YTsgICAgICA8L2c+JiN4YTsgICAgPC9nPiYjeGE7ICA8L2c+JiN4YTs8L3N2Zz4=;" vertex="1" parent="1">
          <mxGeometry x="290" y="100" width="51.7" height="350" as="geometry" />
        </mxCell>
        <mxCell id="RSvUvKUyJQIWyDehmDAG-4" value="" style="endArrow=none;dashed=1;html=1;rounded=0;" edge="1" parent="1">
          <mxGeometry width="50" height="50" relative="1" as="geometry">
            <mxPoint x="260" y="229" as="sourcePoint" />
            <mxPoint x="336" y="153" as="targetPoint" />
          </mxGeometry>
        </mxCell>
        <mxCell id="RSvUvKUyJQIWyDehmDAG-5" value="" style="ellipse;whiteSpace=wrap;html=1;fillColor=#000000;" vertex="1" parent="1">
          <mxGeometry x="370" y="269" width="5" height="5" as="geometry" />
        </mxCell>
        <mxCell id="RSvUvKUyJQIWyDehmDAG-6" value="$$b_0$$" style="text;html=1;align=center;verticalAlign=middle;resizable=0;points=[];autosize=1;strokeColor=none;fillColor=none;fontSize=10;" vertex="1" parent="1">
          <mxGeometry x="320" y="220" width="60" height="30" as="geometry" />
        </mxCell>
        <mxCell id="RSvUvKUyJQIWyDehmDAG-8" value="$$b_1$$" style="text;html=1;align=center;verticalAlign=middle;resizable=0;points=[];autosize=1;strokeColor=none;fillColor=none;fontSize=10;" vertex="1" parent="1">
          <mxGeometry x="350" y="250" width="60" height="30" as="geometry" />
        </mxCell>
        <mxCell id="RSvUvKUyJQIWyDehmDAG-9" value="" style="ellipse;whiteSpace=wrap;html=1;fillColor=#000000;" vertex="1" parent="1">
          <mxGeometry x="469" y="306" width="5" height="5" as="geometry" />
        </mxCell>
        <mxCell id="RSvUvKUyJQIWyDehmDAG-10" value="$$b_2$$" style="text;html=1;align=center;verticalAlign=middle;resizable=0;points=[];autosize=1;strokeColor=none;fillColor=none;fontSize=10;" vertex="1" parent="1">
          <mxGeometry x="460" y="290" width="60" height="30" as="geometry" />
        </mxCell>
        <mxCell id="RSvUvKUyJQIWyDehmDAG-11" value="" style="endArrow=none;dashed=1;html=1;rounded=0;" edge="1" parent="1">
          <mxGeometry width="50" height="50" relative="1" as="geometry">
            <mxPoint x="260" y="229" as="sourcePoint" />
            <mxPoint x="473" y="309" as="targetPoint" />
          </mxGeometry>
        </mxCell>
        <mxCell id="RSvUvKUyJQIWyDehmDAG-12" value="" style="endArrow=none;dashed=1;html=1;dashPattern=1 3;strokeWidth=2;rounded=0;" edge="1" parent="1">
          <mxGeometry width="50" height="50" relative="1" as="geometry">
            <mxPoint x="372" y="271" as="sourcePoint" />
            <mxPoint x="297" y="193" as="targetPoint" />
          </mxGeometry>
        </mxCell>
      </root>
    </mxGraphModel>
  </diagram>
</mxfile>
